<?xml version="1.0" encoding="UTF-8"?>
<svg width="160px" height="160px" viewBox="0 0 160 160" version="1.1" xmlns="http://www.w3.org/2000/svg" xmlns:xlink="http://www.w3.org/1999/xlink">
    <title>logo variant 4</title>
    <g id="logo-variant-4" stroke="none" stroke-width="1" fill="none" fill-rule="evenodd">
        <circle id="Oval-2" stroke="#00FFA2" stroke-width="10" fill="#00FFA2" cx="80" cy="80" r="73"></circle>
        <path d="M83.4830526,32 C88.5750666,32 93.0387905,34.1756771 96.1592049,38.2048202 C98.7180757,41.5088867 100,45.6348682 100,50.4415738 L100,50.4415738 L100,107.227476 C100,113.428439 98.3905316,118.462276 95.6138087,121.965619 C92.6298603,125.730415 88.2898095,128 82.4988183,128 C77.428487,128 72.9712937,126.066936 69.675649,122.386586 C66.6256595,118.980568 65.0960601,114.513279 65.0960601,109.161707 L65.0960601,109.161707 L65.095,83.33 L64.8742677,83.4090143 C62.9568747,84.0759038 61.2238784,84.4220637 59.6441043,84.4919115 L59.3301832,84.5022101 C54.6119131,84.5064261 50.6990541,82.7446462 47.6228267,79.5490902 C44.6106493,76.4200687 43,72.4949761 43,68.1964674 C43,63.1279747 45.0021059,58.7635068 48.863567,55.8448739 C49.6082811,55.2819919 50.5013883,54.6944086 51.5615215,54.0789875 L51.5615215,54.0789875 L52.1497835,53.7437655 L53.0670073,53.2444592 C53.400132,53.0673836 53.7475695,52.887077 54.1096852,52.7032968 L54.1096852,52.7032968 L54.8027185,52.3560926 L55.5365197,51.9975278 L56.7073242,51.4373472 C59.5307815,50.0682854 61.7576982,48.6987441 63.3457048,47.3080828 C65.0956222,45.7756316 66.6434525,44.0634558 67.9946086,42.1658952 L67.9946086,42.1658952 L68.9252501,40.8677729 L69.7578981,39.7252477 L70.362536,38.9125352 L70.9124616,38.1915145 L71.3825682,37.5925284 C75.5116421,32.9731623 79.1518212,32 83.4830526,32 L83.4830526,32 Z" id="Path" stroke="#243B6B" stroke-width="10"></path>
    </g>
</svg>